<svg width="51" height="50" viewBox="0 0 51 50" fill="none" xmlns="http://www.w3.org/2000/svg">
<path d="M9.375 39.0625C12 37.3958 14.5938 36.1354 17.1562 35.2812C19.7188 34.4271 22.5 34 25.5 34C28.5 34 31.2917 34.4271 33.875 35.2812C36.4583 36.1354 39.0625 37.3958 41.6875 39.0625C43.5208 36.8125 44.8229 34.5417 45.5938 32.25C46.3646 29.9583 46.75 27.5417 46.75 25C46.75 18.9583 44.7188 13.9062 40.6562 9.84375C36.5938 5.78125 31.5417 3.75 25.5 3.75C19.4583 3.75 14.4062 5.78125 10.3438 9.84375C6.28125 13.9062 4.25 18.9583 4.25 25C4.25 27.5417 4.64583 29.9583 5.4375 32.25C6.22917 34.5417 7.54167 36.8125 9.375 39.0625ZM25.4884 26.875C23.0795 26.875 21.0521 26.0482 19.4062 24.3946C17.7604 22.741 16.9375 20.7098 16.9375 18.3009C16.9375 15.892 17.7643 13.8646 19.4179 12.2188C21.0715 10.5729 23.1027 9.75 25.5116 9.75C27.9205 9.75 29.9479 10.5768 31.5938 12.2304C33.2396 13.884 34.0625 15.9152 34.0625 18.3241C34.0625 20.733 33.2357 22.7604 31.5821 24.4062C29.9285 26.0521 27.8973 26.875 25.4884 26.875ZM25.4747 50C22.0103 50 18.7545 49.3438 15.7075 48.0312C12.6605 46.7188 10.0099 44.9271 7.75594 42.6562C5.50198 40.3854 3.72917 37.7325 2.4375 34.6974C1.14583 31.6624 0.5 28.4195 0.5 24.9688C0.5 21.518 1.15625 18.2751 2.46875 15.2401C3.78125 12.205 5.57292 9.5625 7.84375 7.3125C10.1146 5.0625 12.7675 3.28125 15.8026 1.96875C18.8376 0.65625 22.0805 0 25.5312 0C28.982 0 32.2249 0.65625 35.2599 1.96875C38.295 3.28125 40.9375 5.0625 43.1875 7.3125C45.4375 9.5625 47.2188 12.2083 48.5312 15.25C49.8438 18.2917 50.5 21.5361 50.5 24.9834C50.5 28.4306 49.8438 31.6702 48.5312 34.7021C47.2188 37.734 45.4375 40.3854 43.1875 42.6562C40.9375 44.9271 38.289 46.7188 35.2419 48.0312C32.1949 49.3438 28.9391 50 25.4747 50Z" fill="black"/>
</svg>
